<?xml version="1.0" encoding="utf-8"?>
<!-- Uploaded to: SVG Repo, www.svgrepo.com, Generator: SVG Repo Mixer Tools -->
<svg fill="#000000" width="800px" height="800px" viewBox="0 0 32 32" version="1.1" xmlns="http://www.w3.org/2000/svg">
<title>arrows-maximize</title>
<path d="M30 13.25c0.69-0 1.25-0.56 1.25-1.25v-10c0-0.021-0.011-0.038-0.012-0.059-0.004-0.151-0.034-0.294-0.087-0.426l0.003 0.008-0-0.003-0.002-0.003c-0.005-0.013-0.015-0.022-0.021-0.035-0.059-0.126-0.132-0.233-0.22-0.327l0.001 0.001c-0.012-0.013-0.015-0.029-0.027-0.041-0.020-0.020-0.047-0.027-0.068-0.045l-0.001-0.001c-0.076-0.067-0.162-0.126-0.254-0.173l-0.007-0.003c-0.027-0.013-0.048-0.036-0.075-0.047-0.018-0.007-0.036-0.008-0.054-0.014-0.126-0.050-0.271-0.080-0.424-0.083h-10.001c-0.69 0-1.25 0.56-1.25 1.25s0.56 1.25 1.25 1.25v0h6.981l-10.981 10.981-10.982-10.981h6.982c0.69 0 1.25-0.56 1.25-1.25s-0.56-1.25-1.25-1.25v0h-10c-0.171 0-0.334 0.035-0.483 0.097l0.008-0.003-0.004 0-0.005 0.003-0.022 0.013c-0.13 0.060-0.242 0.137-0.339 0.229l0.001-0c-0.030 0.030-0.058 0.061-0.084 0.093l-0.002 0.002c-0.067 0.076-0.125 0.161-0.172 0.253l-0.003 0.007c-0.014 0.028-0.036 0.049-0.048 0.078-0.007 0.017-0.007 0.035-0.014 0.053-0.050 0.126-0.080 0.272-0.083 0.424v10.001c0 0.69 0.56 1.25 1.25 1.25s1.25-0.56 1.25-1.25v0-6.982l10.981 10.982-10.981 10.981v-6.981c0-0.69-0.56-1.25-1.25-1.25s-1.25 0.56-1.25 1.25v0 10c0 0.171 0.035 0.335 0.097 0.483l-0.003-0.008 0 0.003 0.003 0.005 0.011 0.018c0.061 0.132 0.138 0.245 0.231 0.343l-0-0.001c0.011 0.012 0.015 0.029 0.027 0.041 0.020 0.020 0.047 0.027 0.069 0.045 0.076 0.067 0.161 0.125 0.254 0.172l0.007 0.003c0.027 0.013 0.047 0.036 0.075 0.047 0.018 0.007 0.037 0.008 0.056 0.015 0.125 0.050 0.271 0.080 0.422 0.082h10.001c0.69 0 1.25-0.56 1.25-1.25s-0.56-1.25-1.25-1.25v0h-6.981l10.981-10.981 10.981 10.981h-6.981c-0.69 0-1.25 0.56-1.25 1.25s0.56 1.25 1.25 1.25v0h10c0.172-0 0.337-0.036 0.486-0.099l-0.008 0.003 0.001-0 0.003-0.002 0.031-0.019c0.126-0.059 0.235-0.132 0.329-0.221l-0.001 0.001c0.013-0.012 0.031-0.016 0.044-0.029 0.021-0.021 0.028-0.050 0.048-0.072 0.066-0.075 0.124-0.16 0.17-0.252l0.003-0.007c0.013-0.027 0.035-0.047 0.047-0.074 0.007-0.017 0.008-0.036 0.014-0.054 0.050-0.126 0.080-0.272 0.083-0.424v-10.001c0-0.69-0.56-1.25-1.25-1.25s-1.25 0.56-1.25 1.25v0 6.981l-10.981-10.981 10.981-10.981v6.981c0 0.69 0.56 1.25 1.25 1.25h0z"></path>
</svg>